HIERARCHY
ROOT Hips
{
     OFFSET 1.88212 96.90440 -13.34250
     CHANNELS 6 Xposition Yposition Zposition Zrotation Xrotation Yrotation
     JOINT Spine
     {
          OFFSET 0.00000 11.89050 0.00000
          CHANNELS 3 Zrotation Xrotation Yrotation
          JOINT Spine1
          {
               OFFSET -0.00000 25.65740 0.12766
               CHANNELS 3 Zrotation Xrotation Yrotation
               JOINT HEad
               {
                    OFFSET 0.00000 8.73416 0.01134
                    CHANNELS 3 Zrotation Xrotation Yrotation
                    End Site
                    {
                         OFFSET -0.29000 12.77420 2.51395
                    }
               }
               JOINT LeftShoulder1
               {
                    OFFSET 8.99000 -0.36225 -0.22000
                    CHANNELS 3 Zrotation Xrotation Yrotation
                    JOINT LeftArm
                    {
                         OFFSET 10.28270 -0.00338 0.32212
                         CHANNELS 3 Zrotation Xrotation Yrotation
                         JOINT LeftForeArm
                         {
                              OFFSET 32.76690 0.09914 -1.42434
                              CHANNELS 3 Zrotation Xrotation Yrotation
                              JOINT LeftHand
                              {
                                   OFFSET 27.56430 0.08536 1.02216
                                   CHANNELS 3 Zrotation Xrotation Yrotation
                                   End Site
                                   {
                                        OFFSET 16.74430 -0.60000 1.50291
                                   }
                              }
                         }
                    }
               }
               JOINT RightShoulder
               {
                    OFFSET -8.99000 -0.36225 -0.22000
                    CHANNELS 3 Zrotation Xrotation Yrotation
                    JOINT RightArm
                    {
                         OFFSET -10.28270 -0.00338 0.32212
                         CHANNELS 3 Zrotation Xrotation Yrotation
                         JOINT RightForeArm
                         {
                              OFFSET -32.89710 0.09914 -1.42434
                              CHANNELS 3 Zrotation Xrotation Yrotation
                              JOINT RightHand
                              {
                                   OFFSET -27.49210 0.08536 1.02216
                                   CHANNELS 3 Zrotation Xrotation Yrotation
                                   End Site
                                   {
                                        OFFSET -16.63120 -0.60000 1.50291
                                   }
                              }
                         }
                    }
               }
          }
     }
     JOINT LeftUpLeg
     {
          OFFSET 8.94580 -8.66707 0.10165
          CHANNELS 3 Zrotation Xrotation Yrotation
          JOINT LeftLeg
          {
               OFFSET 0.00000 -44.42270 1.37270
               CHANNELS 3 Zrotation Xrotation Yrotation
               JOINT LeftFoot
               {
                    OFFSET -0.25355 -42.09240 -1.46059
                    CHANNELS 3 Zrotation Xrotation Yrotation
                    JOINT LeftToes
                    {
                         OFFSET -0.04000 -4.41509 8.49910
                         CHANNELS 3 Zrotation Xrotation Yrotation
                         End Site
                         {
                              OFFSET 0.08000 -0.04745 9.77979
                         }
                    }
               }
          }
     }
     JOINT RightUpLeg
     {
          OFFSET -8.94580 -8.66707 0.10165
          CHANNELS 3 Zrotation Xrotation Yrotation
          JOINT RightLeg
          {
               OFFSET 0.00000 -44.42270 1.37270
               CHANNELS 3 Zrotation Xrotation Yrotation
               JOINT RightFoot
               {
                    OFFSET 0.25355 -42.09240 -1.46059
                    CHANNELS 3 Zrotation Xrotation Yrotation
                    JOINT RightToes
                    {
                         OFFSET 0.04000 -4.41509 8.49910
                         CHANNELS 3 Zrotation Xrotation Yrotation
                         End Site
                         {
                              OFFSET -0.08000 -0.13745 9.77979
                         }
                    }
               }
          }
     }
}
MOTION
Frames: 10
Frame Time: 0.01667
49.78709 92.11152 -340.69772 11.23309 -13.43743 28.48464 -13.30779 33.05857 -1.96515 0.02059 0.01131 -0.05236 1.57284 2.66363 10.13181 4.92253 9.09530 -16.52070 -114.42144 -51.49915 -89.90292 291.83350 38.52255 -34.29782 31.04691 23.51981 -32.34840 19.80744 6.63017 -15.52352 86.89828 -9.45968 47.41549 2.83275 32.55429 124.83994 18.69040 21.43112 15.00753 15.86071 -17.44216 -19.83507 -40.27448 28.11457 82.38268 -2.08884 -0.09044 -0.05720 10.62686 -18.29033 -65.76398 -25.19869 10.42608 -19.29165 16.01963 38.54413 -14.51992 -22.93032 -0.03512 -0.01257 6.75910 -64.90096 23.77647 
49.66309 92.18716 -340.16931 11.48890 -13.34652 29.92565 -12.50654 32.94838 -3.06664 0.05290 0.07565 -0.12183 2.12935 3.23431 7.19815 5.73294 9.42622 -18.25056 -114.89523 -50.73579 -90.91348 306.53131 45.81034 -43.99110 30.55741 18.95563 -27.96017 21.17960 6.57811 -17.18539 85.16558 -3.71261 57.48945 -0.22874 31.47710 122.72090 19.72559 15.48796 11.02399 16.21094 -18.50156 -15.78375 -37.95149 28.93434 72.28461 -5.94156 -0.16846 0.05810 1.18493 -21.97219 -72.17397 -23.49960 11.74488 -13.74016 17.65575 35.17772 -24.45002 -24.11017 -0.03135 -0.01133 14.55025 -65.03560 29.76901 
49.63346 92.08144 -339.70306 10.61005 -13.97083 28.81621 -10.84210 32.93166 -3.66453 0.05100 0.07245 -0.10684 2.69565 2.95955 4.58048 5.32615 9.43564 -18.34460 -117.92869 -52.92917 -94.61229 319.45090 52.16735 -55.19701 24.27723 5.87357 -19.69260 21.32159 6.64261 -16.75881 83.32146 -0.45379 63.67926 -1.68538 30.74930 121.08720 14.35980 13.58388 5.52774 18.07828 -18.02734 -11.43656 -35.53045 28.21216 62.75632 -9.72422 -0.19758 0.05603 16.07067 -16.78781 -61.15678 -21.36530 12.13486 -6.58286 19.07756 32.32123 -33.28854 -25.62287 -0.03535 -0.01109 21.44417 -64.91961 34.82600 
49.72128 91.81435 -339.33774 8.75978 -15.04343 25.58119 -8.43339 33.04729 -3.91111 0.04395 0.06857 -0.08965 2.37613 2.19212 3.65047 4.01583 9.03589 -17.05153 -124.73269 -56.51032 -101.65086 323.16727 57.26107 -59.44630 25.32871 2.96396 -17.14348 20.29764 6.80097 -14.66851 82.04275 1.45221 67.38998 -2.49310 30.25340 119.90389 15.58616 11.15921 4.62423 21.07264 -16.06010 -7.05180 -33.25060 26.07867 54.02867 -13.44687 -0.21187 0.03916 18.17010 -15.98815 -58.08105 -19.10713 11.71095 1.82832 22.57594 28.99142 -43.02595 -29.58754 -0.10189 -0.04869 29.47498 -64.98191 40.90676 
49.96425 91.45969 -339.01331 7.00129 -15.91644 22.61481 -5.27923 33.58920 -5.96996 0.03497 0.06755 -0.07407 1.37897 1.00866 4.13683 2.08973 8.19970 -14.21468 -129.85083 -56.85814 -106.53378 325.94266 61.37192 -61.30756 24.52972 -2.28392 -15.13386 18.29332 6.93813 -11.26738 81.42004 2.61013 69.61591 -2.95698 29.87654 118.81741 13.08282 11.05557 2.14310 23.39576 -14.04081 -4.55634 -31.36646 21.29915 47.49191 -7.65080 0.30977 -0.06080 16.74039 -11.11528 -52.44426 -17.39558 11.15446 9.39993 25.09045 26.07974 -51.04224 -33.25491 -0.07820 -0.04740 36.57037 -64.79058 45.75983 
50.41615 91.05571 -338.65027 5.32473 -16.62997 19.87641 -2.26591 33.65536 -8.05698 -0.01497 0.00186 0.01522 0.50962 0.34569 4.69456 0.53568 7.76056 -11.13576 -132.90941 -55.82036 -109.13138 327.56689 64.30687 -61.83096 26.19503 -1.95391 -14.55093 16.45983 7.39327 -8.12292 81.19025 3.30864 70.88408 -3.30156 29.64196 117.82249 14.05856 10.15816 2.53866 25.19854 -12.11545 -3.69479 -30.42915 17.87434 43.36988 -2.82468 0.20838 -0.08558 11.92069 -8.88235 -49.44559 -16.05072 10.41523 16.11912 26.70753 24.29130 -57.55510 -30.20687 0.04374 0.01988 36.83238 -64.60624 49.38650 
51.10528 90.65807 -338.18155 3.72813 -17.21492 17.31264 0.54519 33.27797 -9.96098 -0.01961 0.00225 0.02128 -0.31161 0.05279 5.38693 -0.89460 7.62377 -7.91828 -134.36565 -54.51568 -110.18348 328.18161 66.11504 -61.78521 26.01308 -3.26457 -13.87392 14.68879 8.04300 -5.17809 81.28715 3.74116 71.59396 -3.53377 29.47092 116.81460 12.84907 10.51523 1.69410 26.60981 -10.83290 -4.23468 -29.81249 14.49925 42.04190 -4.07882 -0.00830 0.04017 13.89808 -5.90202 -47.14057 -15.34619 9.27298 21.01464 28.58832 23.48801 -62.16029 -27.35523 0.03943 0.01807 36.21215 -64.48001 51.88437 
52.03410 90.28604 -337.57275 2.21625 -17.68996 14.88539 3.11467 32.52717 -11.55089 -0.01913 0.00716 0.02185 -1.05153 0.13099 6.07429 -2.16810 7.80033 -5.03899 -134.82274 -53.29428 -110.33393 328.36725 67.29482 -61.60013 26.86757 -1.81483 -13.42854 13.06390 8.86276 -2.63188 81.60094 4.05120 71.95313 -3.72941 29.36983 115.88322 13.70558 10.26439 2.41916 27.71041 -10.32657 -5.97147 -29.27279 11.72103 42.90436 -2.72985 0.04249 0.00361 12.27010 -4.01107 -45.82036 -15.11699 7.99454 24.25460 30.64637 23.52105 -65.01661 -24.53456 0.02841 0.02020 34.93268 -64.68356 53.50754 
53.17515 89.93423 -336.82617 0.80126 -18.06133 12.58239 5.41238 31.46661 -12.75274 -0.01860 0.01181 0.02134 -1.70462 0.52995 6.70429 -3.35202 8.26637 -2.48394 -134.60370 -52.38297 -109.94303 328.49887 67.84757 -61.79647 26.92790 -1.64550 -12.92816 11.57863 9.82399 -0.50862 82.07227 4.24779 72.12724 -3.84567 29.28994 114.99003 13.24994 10.65119 2.23322 28.50954 -10.62020 -8.73835 -28.57765 9.50074 45.45623 -3.28817 0.00420 0.01799 12.43276 -1.96393 -44.74531 -15.29325 6.78445 25.98755 32.74179 24.29309 -66.26598 -21.65361 0.02065 0.02591 33.17481 -65.25053 54.45058 
54.48171 89.58798 -335.96814 -0.49869 -18.32736 10.41550 7.42191 30.15423 -13.54571 -0.01817 0.01629 0.01991 -2.26225 1.19597 7.24116 -4.46656 8.98667 -0.30746 -134.03065 -51.86400 -109.30836 328.65036 68.01310 -62.43927 27.31962 -0.15403 -12.37961 10.23910 10.90329 1.16581 82.64290 4.35560 72.21076 -3.89322 29.23636 114.17256 14.03476 10.62565 2.87066 28.96939 -11.62868 -12.41620 -27.74490 8.06657 49.35775 -3.43540 0.00808 0.01007 11.70679 -0.32228 -43.99558 -15.83694 5.77132 26.33461 34.68206 25.69759 -66.02655 -18.71096 0.01514 0.03159 31.04847 -66.08158 54.86862 
